<svg xmlns="http://www.w3.org/2000/svg" viewBox="0 0 120 120">
  <defs>
    <radialGradient id="o" cx="45%" cy="40%"><stop offset="0%" stop-color="#fcd34d"/><stop offset="60%" stop-color="#f59e0b"/><stop offset="100%" stop-color="#b45309"/></radialGradient>
    <linearGradient id="bg4" x1="0" y1="0" x2="1" y2="1"><stop offset="0%" stop-color="#fffbeb"/><stop offset="100%" stop-color="#fef3c7"/></linearGradient>
  </defs>
  <rect width="120" height="120" rx="28" fill="url(#bg4)"/>
  <ellipse cx="60" cy="100" rx="30" ry="6" fill="#b45309" opacity=".15"/>
  <path d="M60 38c2-7 6-10 6-10s-1 6 0 9c8 4 16 13 16 26 0 14-10 25-22 25S38 77 38 63c0-13 8-22 16-26 1-3 0-9 0-9s4 3 6 10z" fill="url(#o)"/>
  <path d="M52 50c-4 6-5 18 0 28M68 50c4 6 5 18 0 28" stroke="#92400e" stroke-width="2" fill="none" opacity=".4" stroke-linecap="round"/>
</svg>
