<svg xmlns="http://www.w3.org/2000/svg" viewBox="0 0 120 120">
  <defs>
    <linearGradient id="cup" x1="0" y1="0" x2="0" y2="1"><stop offset="0%" stop-color="#5eead4"/><stop offset="100%" stop-color="#0d9488"/></linearGradient>
    <linearGradient id="bg5" x1="0" y1="0" x2="1" y2="1"><stop offset="0%" stop-color="#f0fdfa"/><stop offset="100%" stop-color="#ccfbf1"/></linearGradient>
  </defs>
  <rect width="120" height="120" rx="28" fill="url(#bg5)"/>
  <ellipse cx="58" cy="100" rx="30" ry="6" fill="#0f766e" opacity=".14"/>
  <path d="M32 54h52v8c0 18-11 32-26 32S32 80 32 62v-8z" fill="url(#cup)"/>
  <path d="M84 58h8a8 8 0 0 1 0 16h-9" stroke="#0d9488" stroke-width="5" fill="none" stroke-linecap="round"/>
  <ellipse cx="58" cy="54" rx="26" ry="6" fill="#99f6e4"/>
  <path d="M50 30c0 5 6 5 6 10M62 26c0 5 6 5 6 10" stroke="#14b8a6" stroke-width="3" fill="none" stroke-linecap="round" opacity=".7"/>
</svg>
